{"title":"Officer Down 2013 DVDRip x264 AAC-BiGKATS","uid":8018906,"size":740260398,"categoryP":"video","categoryS":"movies","magnet":"?xt=urn:btih:564e335fd953cb76eca2fdfedf2fdc95efbd4702&amp;dn=Officer+Down+2013+DVDRip+x264+AAC-BiGKATS&amp;tr=udp%3A%2F%2Ftracker.openbittorrent.com%3A80&amp;tr=udp%3A%2F%2Fopen.demonii.com%3A1337&amp;tr=udp%3A%2F%2Ftracker.coppersurfer.tk%3A6969&amp;tr=udp%3A%2F%2Fexodus.desync.com%3A6969","seeders":0,"leechers":2,"uploader":"xxxlavalxxx","files":3,"time":1358163239,"description":" &lt;a href=&quot;http://www.shotpix.com/images/28003923923696430064.jpg&quot; rel=&quot;nofollow&quot; target=&quot;_NEW&quot;&gt;http://www.shotpix.com/images/28003923923696430064.jpg&lt;/a&gt;\n\n &lt;a href=&quot;\nhttp://www.imdb.com/title/tt1925479/&quot; rel=&quot;nofollow&quot; target=&quot;_NEW&quot;&gt;\nhttp://www.imdb.com/title/tt1925479/&lt;/a&gt;\n\nWhen a cop's crooked past comes back to get him, can he do the right thing, or will he succumb to the threats of his dangerous connections?\n \n\n\nDirector: \nBrian A Miller\n\n Writer: \nJohn Chase\n \nStars:\n Walton Goggins, Tommy Flanagan and James Woods\n\nGenres:\n Crime | Drama \n\nCountry:\nUSA \n\nLanguage:\nEnglish \n\n\n\nSource: RETAIL NTSC DVDR - MATiNE - Thanks Much M8.\n\n\n\nFormat                                   : MPEG-4\nFormat profile                           : Base Media\nCodec ID                                 : isom\nFile size                                : 700 MiB\nDuration                                 : 1h 37mn\nOverall bit rate mode                    : Variable\nOverall bit rate                         : 1 004 Kbps\nEncoded date                             : UTC 2013-01-14 09:52:05\nTagged date                              : UTC 2013-01-14 09:52:05\n\nVideo\nID                                       : 1\nFormat                                   : AVC\nFormat/Info                              : Advanced Video Codec\nFormat profile                           : &lt;a class=&quot;__cf_email__&quot; href=&quot;/cdn-cgi/l/email-protection&quot; data-cfemail=&quot;145c7d737c5458203a25&quot;&gt;[email&amp;#160;protected]&lt;/a&gt;&lt;script cf-hash='f9e31' type=&quot;text/javascript&quot;&gt;\n/* &lt;![CDATA[ */!function(){try{var t=&quot;currentScript&quot;in document?document.currentScript:function(){for(var t=document.getElementsByTagName(&quot;script&quot;),e=t.length;e--;)if(t[e].getAttribute(&quot;cf-hash&quot;))return t[e]}();if(t&amp;&amp;t.previousSibling){var e,r,n,i,c=t.previousSibling,a=c.getAttribute(&quot;data-cfemail&quot;);if(a){for(e=&quot;&quot;,r=parseInt(a.substr(0,2),16),n=2;a.length-n;n+=2)i=parseInt(a.substr(n,2),16)^r,e+=String.fromCharCode(i);e=document.createTextNode(e),c.parentNode.replaceChild(e,c)}}}catch(u){}}();/* ]]&gt; */&lt;/script&gt;\nFormat settings, CABAC                   : Yes\nFormat settings, ReFrames                : 3 frames\nCodec ID                                 : avc1\nCodec ID/Info                            : Advanced Video Coding\nDuration                                 : 1h 37mn\nBit rate mode                            : Variable\nBit rate                                 : 873 Kbps\nMaximum bit rate                         : 40.0 Mbps\nWidth                                    : 720 pixels\nHeight                                   : 304 pixels\nDisplay aspect ratio                     : 2.35:1\nFrame rate mode                          : Constant\nFrame rate                               : 23.976 fps\nColor space                              : YUV\nChroma subsampling                       : 4:2:0\nBit depth                                : 8 bits\nScan type                                : Progressive\nBits/(Pixel*Frame)                       : 0.166\nStream size                              : 608 MiB (87%)\nTitle                                    : 264#trackID=1:fps=&lt;a class=&quot;__cf_email__&quot; href=&quot;/cdn-cgi/l/email-protection&quot; data-cfemail=&quot;d2e0e1fcebe5e49295829391e2fce7fce3ff969784ffa0b7a4e6e0e5e5&quot;&gt;[email&amp;#160;protected]&lt;/a&gt;&lt;script cf-hash='f9e31' type=&quot;text/javascript&quot;&gt;\n/* &lt;![CDATA[ */!function(){try{var t=&quot;currentScript&quot;in document?document.currentScript:function(){for(var t=document.getElementsByTagName(&quot;script&quot;),e=t.length;e--;)if(t[e].getAttribute(&quot;cf-hash&quot;))return t[e]}();if(t&amp;&amp;t.previousSibling){var e,r,n,i,c=t.previousSibling,a=c.getAttribute(&quot;data-cfemail&quot;);if(a){for(e=&quot;&quot;,r=parseInt(a.substr(0,2),16),n=2;a.length-n;n+=2)i=parseInt(a.substr(n,2),16)^r,e+=String.fromCharCode(i);e=document.createTextNode(e),c.parentNode.replaceChild(e,c)}}}catch(u){}}();/* ]]&gt; */&lt;/script&gt;\nWriting library                          : x264 core 129 r2245 bc13772\nEncoding settings                        : cabac=1 / ref=4 / deblock=1:-1:-1 / analyse=0x3:0x113 / me=umh / subme=9 / psy=1 / psy_rd=1.00:0.15 / mixed_ref=1 / me_range=18 / chroma_me=1 / trellis=2 / 8x8dct=1 / cqm=0 / deadzone=21,11 / fast_pskip=0 / chroma_qp_offset=-3 / threads=6 / lookahead_threads=1 / sliced_threads=0 / slices=4 / nr=0 / decimate=1 / interlaced=0 / bluray_compat=0 / constrained_intra=0 / bframes=3 / b_pyramid=1 / b_adapt=2 / b_bias=0 / direct=1 / weightb=1 / open_gop=0 / weightp=0 / keyint=23 / keyint_min=1 / scenecut=40 / intra_refresh=0 / rc_lookahead=23 / rc=2pass / mbtree=1 / bitrate=873 / ratetol=1.0 / qcomp=0.60 / qpmin=10 / qpmax=51 / qpstep=4 / cplxblur=20.0 / qblur=0.5 / vbv_maxrate=40000 / vbv_bufsize=30000 / nal_hrd=vbr / ip_ratio=1.40 / aq=1:1.00\nEncoded date                             : UTC 2013-01-14 09:52:05\nTagged date                              : UTC 2013-01-14 09:52:39\nColor primaries                          : BT.709-5, BT.1361, IEC 61966-2-4, SMPTE RP177\nTransfer characteristics                 : BT.709-5, BT.1361\nMatrix coefficients                      : BT.709-5, BT.1361, IEC 61966-2-4 709, SMPTE RP177\n\nAudio\nID                                       : 2\nFormat                                   : AAC\nFormat/Info                              : Advanced Audio Codec\nFormat profile                           : LC\nCodec ID                                 : 40\nDuration                                 : 1h 37mn\nBit rate mode                            : Variable\nBit rate                                 : 128 Kbps\nMaximum bit rate                         : 145 Kbps\nChannel(s)                               : 6 channels\nChannel positions                        : Front: L C R, Side: L R, LFE\nSampling rate                            : 48.0 KHz\nCompression mode                         : Lossy\nStream size                              : 88.9 MiB (13%)\nLanguage                                 : English\nEncoded date                             : UTC 2013-01-14 08:39:56\nTagged date                              : UTC 2013-01-14 09:52:39\n\n\n &lt;a href=&quot;\nhttp://www.shotpix.com/images/49247187643792564914.png&quot; rel=&quot;nofollow&quot; target=&quot;_NEW&quot;&gt;\nhttp://www.shotpix.com/images/49247187643792564914.png&lt;/a&gt; &lt;a href=&quot;\nhttp://www.shotpix.com/images/17695019362620382930.png&quot; rel=&quot;nofollow&quot; target=&quot;_NEW&quot;&gt;\nhttp://www.shotpix.com/images/17695019362620382930.png&lt;/a&gt; &lt;a href=&quot;\nhttp://www.shotpix.com/images/24494447254568414333.png&quot; rel=&quot;nofollow&quot; target=&quot;_NEW&quot;&gt;\nhttp://www.shotpix.com/images/24494447254568414333.png&lt;/a&gt; &lt;a href=&quot;\nhttp://www.shotpix.com/images/92996378865226528920.png&quot; rel=&quot;nofollow&quot; target=&quot;_NEW&quot;&gt;\nhttp://www.shotpix.com/images/92996378865226528920.png&lt;/a&gt; &lt;a href=&quot;\nhttp://www.shotpix.com/images/84892266489122826739.png&quot; rel=&quot;nofollow&quot; target=&quot;_NEW&quot;&gt;\nhttp://www.shotpix.com/images/84892266489122826739.png&lt;/a&gt;","torrent":{"xt":"urn:btih:564e335fd953cb76eca2fdfedf2fdc95efbd4702","amp;dn":"Officer+Down+2013+DVDRip+x264+AAC-BiGKATS","amp;tr":["udp%3A%2F%2Ftracker.openbittorrent.com%3A80","udp%3A%2F%2Fopen.demonii.com%3A1337","udp%3A%2F%2Ftracker.coppersurfer.tk%3A6969","udp%3A%2F%2Fexodus.desync.com%3A6969"],"infoHash":"564e335fd953cb76eca2fdfedf2fdc95efbd4702","infoHashBuffer":{"type":"Buffer","data":[86,78,51,95,217,83,203,118,236,162,253,254,223,47,220,149,239,189,71,2]},"announce":[],"urlList":[]}}